<svg width="36" height="36" viewBox="0 0 36 36" fill="none" xmlns="http://www.w3.org/2000/svg">
<g clip-path="url(#clip0_758_47)">
<path d="M21.2306 1.06145C14.7694 -3.37764 11.986 7.14258 21.2306 13.5065L21.2576 7.28394L21.2306 1.06145Z" fill="#EF4444"/>
<path d="M32.2618 8.30688C30.832 0.599214 21.4248 6.06999 23.4618 17.1068L27.8809 12.7259L32.2618 8.30688Z" fill="#F59E0B"/>
<path d="M34.9387 21.2304C39.3778 14.7692 28.8575 11.9858 22.4937 21.2304L28.7162 21.2574L34.9387 21.2304Z" fill="#FCD34D"/>
<path d="M27.693 32.2618C35.4008 30.832 29.9299 21.4248 18.8931 23.4618L23.2739 27.8808L27.693 32.2618Z" fill="#CDDC39"/>
<path d="M14.7697 34.9387C21.2309 39.3778 24.0143 28.8575 14.7697 22.4937L14.7427 28.7162L14.7697 34.9387Z" fill="#047857"/>
<path d="M3.73828 27.6933C5.16811 35.401 14.5752 29.9301 12.5382 18.8933L8.11912 23.2742L3.73828 27.6933Z" fill="#3B82F6"/>
<path d="M1.06145 14.7695C-3.37764 21.2307 7.14258 24.0141 13.5065 14.7695L7.28394 14.7424L1.06145 14.7695Z" fill="#1E40AF"/>
<path d="M8.30662 3.73853C0.598974 5.16839 6.06976 14.5755 17.1066 12.5385L12.7257 8.1194L8.30662 3.73853Z" fill="#6D28D9"/>
</g>
<defs>
<clipPath id="clip0_758_47">
<rect width="36" height="36" fill="white"/>
</clipPath>
</defs>
</svg>
